# xmcd
#
# Track frame offsets:
# 150
# 964
# 20564
# 36937
# 37751
# 44473
# 48896
# 51823
# 64313
# 101762
# 112121
# 127842
# 141919
# 150147
# 179610
# 184538
# 192669
# 198908
# 207540
# 214371
# 227060
# 241374
# 249422
#
# Disc length: 3335 seconds
#
#
# Revision: 0
# Processed by: cddbd v1.5PL3 Copyright (c) Steve Scherf et al.
# Submitted via: FreeRIP 2.60 
#
DISCID=430d0517
DTITLE=The Beatles - The Lost Pepperland Reels
DYEAR=1900
DGENRE=Ballad
TTITLE0=All You Need is Love
TTITLE1=Lucy in the Sky with Diamoonds
TTITLE2=Good Morning Animal Noises
TTITLE3=Intro to Sgt. Pepper
TTITLE4=Billy Shears Applause
TTITLE5=Yellow Submarine
TTITLE6=It's All Too Much
TTITLE7=All Together Now
TTITLE8=Only a Northern Song
TTITLE9=Hey Bulldog
TTITLE10=Mellotron Music No. 4
TTITLE11=Penny Lane Overbub Session
TTITLE12=Good Morning
TTITLE13=Breakdown
TTITLE14=She Can Talk to Me
TTITLE15=She can Talk to Me 2
TTITLE16=Across the Universe
TTITLE17=You Know my Name
TTITLE18=Chi Chis
TTITLE19=Mellotron Music No. 5
TTITLE20=?
TTITLE21=?
TTITLE22=?
EXTD=Vigotone Records
EXTT0=
EXTT1=
EXTT2=
EXTT3=
EXTT4=
EXTT5=
EXTT6=
EXTT7=
EXTT8=
EXTT9=
EXTT10=
EXTT11=
EXTT12=
EXTT13=
EXTT14=
EXTT15=
EXTT16=
EXTT17=
EXTT18=
EXTT19=
EXTT20=
EXTT21=
EXTT22=
PLAYORDER=
